<?xml version="1.0" encoding="UTF-8" standalone="yes"?>
<svg width="1080" height="1080" viewBox="0 0 1080 1080" version="1.2" baseProfile="tiny-ps" xmlns="http://www.w3.org/2000/svg">
  <title>bimi-svg-tiny-12-ps</title>
  <path d="M 242.772 185.735 C 205.497 222.995, 175 253.891, 175 254.393 C 175 254.940, 201.252 255.085, 240.500 254.754 L 306 254.202 306 395.101 L 306 536 401.941 536 C 454.709 536, 498.088 535.663, 498.340 535.250 C 498.722 534.623, 481.222 478.914, 476.350 465.250 L 474.835 461 432.417 461 L 390 461 390 428.019 L 390 395.038 392.250 394.487 C 393.939 394.073, 471.673 394.490, 472.694 394.918 C 472.801 394.963, 474.448 400.062, 476.354 406.250 C 478.260 412.438, 483.288 428.750, 487.528 442.500 C 491.769 456.250, 498.718 478.975, 502.971 493 C 507.224 507.025, 513.691 528.264, 517.343 540.199 L 523.982 561.898 517.536 579.199 C 513.990 588.714, 509.306 601.225, 507.126 607 C 504.947 612.775, 497.491 632.800, 490.558 651.500 C 483.626 670.200, 475.497 692.025, 472.494 700 C 469.491 707.975, 466.543 715.850, 465.944 717.500 C 464.862 720.479, 464.829 720.439, 461.363 712 C 458.048 703.931, 447.984 679.478, 432.965 643 C 429.229 633.925, 420.284 612.100, 413.088 594.500 C 405.892 576.900, 399.617 561.825, 399.143 561 C 398.402 559.709, 392.145 559.464, 354.162 559.240 L 310.042 558.979 310.905 561.240 C 311.722 563.379, 322.244 587.305, 338.506 624 C 342.527 633.075, 350.859 651.975, 357.021 666 C 363.182 680.025, 374.300 705.225, 381.726 722 C 407.471 780.156, 416 800.187, 415.930 802.338 C 415.892 803.527, 413.489 808.775, 410.590 814 L 405.320 823.500 348.910 823.727 L 292.500 823.953 262.250 793.932 L 232 763.911 232 660.658 L 232 557.405 241.518 556.202 C 259.626 553.915, 272.266 547.929, 284.011 536.079 C 300.086 519.858, 306.858 496.541, 302.590 472.104 C 299.337 453.472, 293.090 441.974, 277.621 426.142 C 268.635 416.946, 232.288 383.852, 218.273 372.106 C 211.932 366.792, 209 361.172, 209 354.332 C 209 345.147, 215.633 338.787, 225.357 338.646 C 237.020 338.477, 243.063 345.373, 243.816 359.709 L 244.251 368 265.875 367.876 C 277.769 367.807, 290.650 367.470, 294.500 367.126 L 301.500 366.500 301.282 357 C 300.475 321.836, 278.460 294.739, 244.721 287.387 C 234.864 285.238, 212.981 285.250, 202.500 287.408 C 177.280 292.603, 158.369 310.444, 150.969 336.027 C 147.878 346.711, 147.156 366.730, 149.453 378.065 C 152.574 393.466, 159.792 405.791, 173.162 418.546 C 181.869 426.852, 196.751 440.194, 214 455.157 C 238.491 476.401, 242.544 481.807, 241.790 492.222 C 241.421 497.322, 240.904 498.563, 237.886 501.581 C 233.679 505.788, 228.924 506.831, 223.769 504.677 C 218.482 502.468, 216.773 498.416, 216.206 486.750 L 215.733 477 181.866 477 L 148 477 148 636.713 L 148 796.426 205.849 854.218 L 263.698 912.010 365.022 911.755 L 466.346 911.500 480.475 876 C 488.246 856.475, 499.848 827.225, 506.258 811 C 512.667 794.775, 522.803 769.125, 528.782 754 C 534.761 738.875, 540.069 726.551, 540.577 726.614 C 544.117 727.052, 683.047 773.683, 685.127 775.131 C 690.043 778.555, 691 782.367, 691 798.515 C 691 811.596, 690.768 813.641, 688.906 816.954 C 685.039 823.835, 684.260 824, 655.846 823.996 C 632.471 823.993, 630.251 823.841, 627.299 822.040 C 621.251 818.353, 620.537 815.619, 620.172 794.750 L 619.844 776 577.029 776 C 538.910 776, 534.147 776.173, 533.607 777.582 C 533.273 778.452, 533 809.065, 533 845.612 L 533 912.061 623.750 911.767 C 714.032 911.475, 714.540 911.463, 722.342 909.254 C 735.563 905.512, 742.599 901.486, 751.547 892.543 C 765.500 878.597, 770.335 866.013, 771.895 839.580 C 772.385 831.286, 772.496 804.700, 772.143 780.500 L 771.500 736.500 768.730 730.858 C 765.536 724.355, 759.288 718.188, 752.340 714.683 C 749.678 713.340, 714.440 701.287, 674.033 687.899 C 595.213 661.784, 595.434 661.876, 592.945 654.333 C 590.491 646.899, 594.040 638.135, 600.617 635.387 C 603.385 634.230, 624.034 634, 724.968 634 L 846 634 846 698.667 L 846 763.334 820 789.381 L 794 815.429 794 863.714 L 794 912 803.586 912 L 813.172 912 871.086 854.017 L 929 796.033 929 490.517 L 929 185 887.500 185 L 846 185 846 367.500 L 846 550 726.078 550 L 606.155 550 605.124 546.750 C 604.557 544.962, 600.404 530.900, 595.894 515.500 C 591.385 500.100, 583.330 472.650, 577.995 454.500 C 572.659 436.350, 565.273 411.150, 561.581 398.500 C 557.888 385.850, 552.230 366.725, 549.008 356 C 545.785 345.275, 538.363 320.300, 532.514 300.500 C 526.665 280.700, 521.457 263.195, 520.940 261.601 C 518.849 255.152, 519.148 254.889, 528.211 255.210 L 536.422 255.500 542.066 275 C 551.252 306.739, 563.728 349.216, 569.527 368.500 C 574.678 385.630, 577.658 395.806, 595.888 458.500 C 611.429 511.945, 617.289 531.514, 617.990 532.301 C 618.382 532.742, 634.781 533.245, 654.433 533.419 C 690.012 533.735, 690.167 533.727, 691.099 531.618 C 691.614 530.453, 694.228 521.625, 696.909 512 C 702.003 493.704, 709.032 468.930, 719.181 433.500 C 722.489 421.950, 729.187 398.325, 734.064 381 C 738.942 363.675, 747.012 335.100, 751.997 317.500 C 756.983 299.900, 764.152 274.475, 767.929 261 C 771.706 247.525, 777.992 225.519, 781.898 212.097 C 785.804 198.675, 789 187.087, 789 186.347 C 789 185.239, 781.561 185, 747.117 185 C 708.085 185, 705.199 185.119, 704.733 186.750 C 704.458 187.713, 700.341 203.293, 695.583 221.374 C 690.825 239.455, 685.407 259.705, 683.543 266.374 C 681.679 273.043, 677.165 289.975, 673.513 304 C 669.860 318.025, 665.585 334, 664.013 339.500 C 662.440 345, 659.240 356.879, 656.902 365.897 L 652.650 382.295 651.422 377.897 C 643.882 350.882, 641.258 341.201, 636.003 321 C 632.640 308.075, 627.469 288.725, 624.511 278 C 621.553 267.275, 616.138 247.250, 612.478 233.500 C 608.818 219.750, 604.410 203.217, 602.684 196.760 L 599.544 185.020 555.022 184.760 L 510.500 184.500 510 151.500 L 509.500 118.500 410.022 118.245 L 310.544 117.990 242.772 185.735 M 390.667 255.667 C 390.300 256.033, 390 269.983, 390 286.667 L 390 317 420.500 317 C 438.287 317, 451 316.618, 451 316.085 C 451 314.742, 432.220 259.280, 430.982 256.966 C 429.991 255.115, 428.796 255, 410.631 255 C 400.018 255, 391.033 255.300, 390.667 255.667" stroke="none" fill="#000000" fill-rule="evenodd"/>
</svg>